# xmcd CD database file
#
# Track frame offsets:
#	150
#	20967
#	38787
#	52487
#	69955
#	90635
#	110502
#	131465
#
# Disc length: 2483 seconds
#
# Revision: 0
# Processed by: cddbd v1.5.2PL0 Copyright (c) Steve Scherf et al.
# Submitted via: CDex 1.50
#
DISCID=7009b108
DTITLE=Mike Oldfield - Discovery
DYEAR=1984
DGENRE=New Age
TTITLE0=To France
TTITLE1=Poison Arrows
TTITLE2=Crystal Gazing
TTITLE3=Tricks of the Light
TTITLE4=Discovery
TTITLE5=Talk about your live
TTITLE6=Saved by Bell
TTITLE7=The Lake
EXTD=YEAR: 1984
EXTT0=
EXTT1=
EXTT2=
EXTT3=
EXTT4=
EXTT5=
EXTT6=
EXTT7=
PLAYORDER=
